<svg xmlns="http://www.w3.org/2000/svg" viewBox="0 0 56 56"><defs><style>.cls-1{fill:#fff;}.cls-2{fill:#1977f2;}</style></defs><g id="图层_2" data-name="图层 2"><g id="图层_1-2" data-name="图层 1"><circle class="cls-1" cx="28" cy="28" r="28"/><path class="cls-2" d="M28,0A28.09,28.09,0,0,0,0,28.17,27.78,27.78,0,0,0,23.63,55.66V36.31H16.51V28.17h7.12V22c0-7.06,4.17-11,10.57-11a42.75,42.75,0,0,1,6.27.55v6.93H36.94c-3.48,0-4.56,2.17-4.56,4.4v5.28h7.76v8.14H32.37V55.66A27.78,27.78,0,0,0,56,28.17,28.09,28.09,0,0,0,28,0Z"/></g></g></svg>